<?xml version="1.0" standalone="no"?>
<!DOCTYPE svg PUBLIC "-//W3C//DTD SVG 20010904//EN"
 "http://www.w3.org/TR/2001/REC-SVG-20010904/DTD/svg10.dtd">
<svg version="1.0" xmlns="http://www.w3.org/2000/svg"
 width="374.000000pt" height="125.000000pt" viewBox="0 0 374.000000 125.000000"
 preserveAspectRatio="xMidYMid meet">

<g transform="translate(0.000000,125.000000) scale(0.100000,-0.100000)"
fill="#000000" stroke="none">
<path d="M1402 974 c-60 -30 -105 -87 -122 -156 -7 -28 -10 -112 -8 -224 3
-162 5 -183 25 -220 28 -53 91 -107 142 -122 49 -15 1119 -17 1170 -2 54 15
110 59 139 109 l27 46 0 215 c0 201 -1 218 -22 255 -26 49 -55 76 -110 104
-41 21 -52 21 -616 21 l-573 0 -52 -26z m288 -43 c26 -7 37 -36 22 -58 -6 -9
-18 -9 -50 -1 -77 19 -122 -8 -122 -73 0 -39 0 -39 40 -39 36 0 40 -2 40 -25
0 -22 -4 -25 -40 -25 l-40 0 0 -175 0 -175 -35 0 -35 0 0 175 0 175 -35 0
c-30 0 -35 3 -35 24 0 21 6 25 33 28 31 3 32 5 37 55 6 54 34 96 75 113 24 10
110 11 145 1z m928 -283 l2 -288 -35 0 c-24 0 -35 5 -35 15 0 12 -6 11 -32 -5
-46 -28 -115 -26 -159 3 -110 72 -110 302 0 374 44 29 113 31 159 3 l32 -20 0
106 0 105 33 -3 32 -3 3 -287z m-489 107 c51 -26 61 -65 61 -239 l0 -156 -34
0 -35 0 -3 156 c-3 150 -4 157 -27 175 -36 29 -87 25 -122 -10 l-29 -29 0
-146 0 -146 -35 0 -35 0 0 200 0 200 35 0 c28 0 35 -4 35 -20 0 -18 2 -18 36
5 43 29 109 33 153 10z m-369 -195 l0 -200 -40 0 -40 0 0 200 0 200 40 0 40 0
0 -200z" fill="#393E46"/>
<path d="M2402 694 c-35 -24 -52 -68 -52 -134 0 -96 39 -150 108 -150 24 0 42
9 63 29 28 28 29 33 29 124 0 94 0 96 -31 121 -35 30 -83 34 -117 10z" fill="#393E46"/>
<path d="M3050 785 l-165 -165 168 -168 167 -167 165 165 165 165 -168 168
-167 167 -165 -165z" fill="#DC5F00"/>
<path d="M309 900 c-77 -23 -123 -89 -139 -198 -19 -133 17 -261 88 -310 88
-62 241 -53 313 19 16 16 19 33 19 119 l0 100 -100 0 -100 0 0 -30 0 -30 60 0
60 0 0 -66 c0 -65 0 -65 -35 -80 -86 -36 -171 -6 -212 76 -19 36 -23 60 -23
135 1 154 50 220 157 212 59 -4 87 -23 108 -74 12 -27 19 -33 44 -33 26 0 31
4 31 23 0 40 -43 99 -89 124 -46 24 -127 30 -182 13z" fill="#000000"/>
<path d="M780 888 c-52 -26 -90 -78 -90 -120 0 -75 53 -126 170 -163 112 -36
147 -69 135 -125 -21 -94 -210 -93 -241 1 -10 30 -16 34 -45 34 -32 0 -34 -2
-31 -29 10 -94 144 -157 269 -127 105 26 154 124 103 209 -25 41 -66 65 -162
98 -100 33 -122 51 -122 98 0 53 29 78 98 84 67 5 100 -12 122 -64 12 -29 19
-34 49 -34 38 0 40 5 24 47 -37 98 -176 143 -279 91z" fill="#000000"/>
</g>
</svg>
